<?xml version="1.0" encoding="UTF-8" standalone="no"?>
<!-- Created with Inkscape (http://www.inkscape.org/) -->

<svg
   xmlns:dc="http://purl.org/dc/elements/1.1/"
   xmlns:cc="http://creativecommons.org/ns#"
   xmlns:rdf="http://www.w3.org/1999/02/22-rdf-syntax-ns#"
   xmlns:svg="http://www.w3.org/2000/svg"
   xmlns="http://www.w3.org/2000/svg"
   xmlns:sodipodi="http://sodipodi.sourceforge.net/DTD/sodipodi-0.dtd"
   xmlns:inkscape="http://www.inkscape.org/namespaces/inkscape"
   width="744.09448819"
   height="1052.3622047"
   id="svg3792"
   version="1.1"
   inkscape:version="0.48.4 r9939"
   sodipodi:docname="frontback.svg">
  <defs
     id="defs3794" />
  <sodipodi:namedview
     id="base"
     pagecolor="#ffffff"
     bordercolor="#666666"
     borderopacity="1.0"
     inkscape:pageopacity="0.0"
     inkscape:pageshadow="2"
     inkscape:zoom="0.90509668"
     inkscape:cx="230.62847"
     inkscape:cy="668.55811"
     inkscape:document-units="px"
     inkscape:current-layer="layer1"
     showgrid="false"
     inkscape:window-width="1360"
     inkscape:window-height="706"
     inkscape:window-x="-8"
     inkscape:window-y="-8"
     inkscape:window-maximized="1" />
  <metadata
     id="metadata3797">
    <rdf:RDF>
      <cc:Work
         rdf:about="">
        <dc:format>image/svg+xml</dc:format>
        <dc:type
           rdf:resource="http://purl.org/dc/dcmitype/StillImage" />
        <dc:title></dc:title>
      </cc:Work>
    </rdf:RDF>
  </metadata>
  <g
     inkscape:label="Layer 1"
     inkscape:groupmode="layer"
     id="layer1">
    <rect
       style="fill:#000000;fill-opacity:1;stroke:#0000ff;stroke-opacity:1;stroke-width:0.01;stroke-miterlimit:4;stroke-dasharray:none"
       id="rect3800"
       width="265.74802"
       height="425.19684"
       x="94.448807"
       y="215.16267"
       rx="20.299999"
       ry="20"
       inkscape:export-filename="C:\Users\User1\Documents\GitHub\TYFONE\prototype.png"
       inkscape:export-xdpi="139.75"
       inkscape:export-ydpi="139.75" />
    <rect
       style="fill:#ffffff;fill-opacity:1;stroke:#0000ff;stroke-opacity:1;stroke-width:0.01;stroke-miterlimit:4;stroke-dasharray:none"
       id="rect3802"
       width="198.4252"
       height="301.18109"
       x="127.78435"
       y="254.69113"
       inkscape:export-filename="C:\Users\User1\Documents\GitHub\TYFONE\prototype.png"
       inkscape:export-xdpi="139.75"
       inkscape:export-ydpi="139.75" />
    <path
       sodipodi:type="arc"
       style="fill:#000000;fill-opacity:1;stroke:#b3b3b3;stroke-opacity:1;stroke-width:0.51207550999999996;stroke-miterlimit:4;stroke-dasharray:none"
       id="path3804"
       sodipodi:cx="346.9874"
       sodipodi:cy="645.77576"
       sodipodi:rx="10.101525"
       sodipodi:ry="10.101525"
       d="m 357.08892,645.77576 a 10.101525,10.101525 0 1 1 -20.20305,0 10.101525,10.101525 0 1 1 20.20305,0 z"
       transform="matrix(1.952837,0,0,1.952837,-450.3255,-663.30128)"
       inkscape:export-filename="C:\Users\User1\Documents\GitHub\TYFONE\prototype.png"
       inkscape:export-xdpi="139.75"
       inkscape:export-ydpi="139.75" />
    <path
       sodipodi:type="star"
       style="fill:#000000;fill-opacity:1;stroke:#b3b3b3;stroke-width:1.81756008;stroke-linecap:butt;stroke-linejoin:round;stroke-miterlimit:4;stroke-opacity:1;stroke-dasharray:none;stroke-dashoffset:0"
       id="path4318"
       sodipodi:sides="5"
       sodipodi:cx="171.22086"
       sodipodi:cy="460.91788"
       sodipodi:r1="23.134478"
       sodipodi:r2="11.567239"
       sodipodi:arg1="0.94039491"
       sodipodi:arg2="1.5687134"
       inkscape:flatsided="false"
       inkscape:rounded="0"
       inkscape:randomized="0"
       d="m 184.85791,479.6057 -13.61296,-7.12061 -13.58319,7.17726 2.56547,-15.14709 -11.02341,-10.70049 15.19851,-2.2408 6.77034,-13.79052 6.82773,13.76219 15.20771,2.17748 -10.97873,10.74631 z"
       inkscape:transform-center-x="0.0081935262"
       inkscape:transform-center-y="-1.2076525"
       transform="matrix(0.55018814,0,0,0.55018814,133.05977,344.09335)"
       inkscape:export-filename="C:\Users\User1\Documents\GitHub\TYFONE\prototype.png"
       inkscape:export-xdpi="139.75"
       inkscape:export-ydpi="139.75" />
    <g
       id="layer1-0"
       inkscape:label="Layer 1"
       transform="matrix(0.13371109,0,0,0.13371109,178.99434,145.12735)"
       style="fill:#ffffff"
       inkscape:export-filename="C:\Users\User1\Documents\GitHub\TYFONE\prototype.png"
       inkscape:export-xdpi="139.75"
       inkscape:export-ydpi="139.75">
      <g
         style="font-size:200px;font-style:normal;font-variant:normal;font-weight:normal;font-stretch:normal;text-indent:0;text-align:start;text-decoration:none;line-height:100%;letter-spacing:0px;word-spacing:0px;text-transform:none;direction:ltr;block-progression:tb;writing-mode:tb-rl;text-anchor:start;baseline-shift:baseline;color:#000000;fill:#ffffff;fill-opacity:1;fill-rule:nonzero;stroke:#000000;stroke-width:0;marker:none;visibility:visible;display:inline;overflow:visible;enable-background:accumulate;font-family:'Arista 2.0';-inkscape-font-specification:'Arista 2.0,';stroke-miterlimit:4;stroke-dasharray:none;stroke-opacity:1"
         id="text2985">
        <path
           d="m 145.34476,630.27496 c 3.86547,1.3e-4 7.0983,1.33375 9.69849,4.00086 2.6,2.66736 3.90005,5.86661 3.90015,9.59778 -1e-4,3.86974 -1.30015,7.07103 -3.90015,9.60388 -2.60019,2.53306 -5.83302,3.79954 -9.69849,3.79944 l -22.3999,0 0,87.20092 c -6e-5,3.86557 -1.26756,7.0984 -3.80249,9.69849 -2.53505,2.6001 -5.73532,3.90015 -9.60083,3.90015 -3.86561,0 -7.06486,-1.30005 -9.597776,-3.90015 -2.533,-2.60009 -3.799478,-5.83292 -3.799439,-9.69849 l 0,-87.20092 -22.601318,0 c -3.735364,10e-5 -6.902069,-1.26638 -9.500122,-3.79944 -2.598068,-2.53285 -3.897098,-5.73414 -3.897095,-9.60388 -3e-6,-3.73117 1.299027,-6.93042 3.897095,-9.59778 2.598053,-2.66711 5.764758,-4.00073 9.500122,-4.00086 z"
           style="marker:none;stroke-width:0;stroke-miterlimit:4;stroke-dasharray:none;stroke:#000000;stroke-opacity:1"
           id="path3055" />
        <path
           d="m 165.43143,661.47614 0,-17.79786 c 0,-3.73523 1.30005,-6.90295 3.90015,-9.50317 2.60009,-2.59997 5.70067,-3.90002 9.30176,-3.90015 3.86554,1.3e-4 7.09836,1.30018 9.69849,3.90015 2.60006,2.60022 3.90011,5.76794 3.90014,9.50317 l 0,17.79786 c -3e-5,5.46884 1.83306,10.0363 5.49927,13.70239 3.66614,3.66626 8.23156,5.49934 13.69629,5.49927 5.46869,7e-5 10.06972,-1.83301 13.8031,-5.49927 3.73325,-3.66609 5.59991,-8.23355 5.59997,-13.70239 l 0,-17.79786 c -6e-5,-3.73523 1.29998,-6.90295 3.90015,-9.50317 2.60002,-2.59997 5.70061,-3.90002 9.30176,-3.90015 3.86547,1.3e-4 7.0983,1.30018 9.69849,3.90015 2.6,2.60022 3.90005,5.76794 3.90014,9.50317 l 0,17.79786 0,0.20141 c -9e-5,5.20029 -0.83322,10.16651 -2.49939,14.89868 -1.66635,4.73234 -3.96636,9.03226 -6.90002,12.89978 -2.93384,3.86766 -6.43421,7.2012 -10.5011,10.00061 -4.06705,2.79954 -8.50125,4.86659 -13.30261,6.20118 l 0,39.00146 c -7e-5,3.73129 -1.30011,6.89698 -3.90015,9.49707 -2.60015,2.6001 -5.6987,3.90015 -9.29565,3.90015 -3.86968,0 -7.10454,-1.30005 -9.70459,-3.90015 -2.60014,-2.60009 -3.90019,-5.76578 -3.90015,-9.49707 l 0,-39.20288 c -4.66312,-1.46479 -8.96202,-3.59797 -12.89673,-6.39954 -3.93475,-2.80145 -7.33542,-6.13498 -10.20203,-10.00061 -2.86662,-3.86548 -5.09949,-8.13184 -6.6986,-12.79907 -1.59913,-4.66707 -2.39869,-9.60074 -2.39869,-14.80102 z"
           style="marker:none;stroke-width:0;stroke-miterlimit:4;stroke-dasharray:none;stroke:#000000;stroke-opacity:1"
           id="path3057" />
        <path
           d="m 295.24711,657.27692 0,29.79736 30.20019,0 c 3.86956,7e-5 7.07086,1.33369 9.60389,4.00085 2.53288,2.6673 3.79936,5.8686 3.79943,9.60389 -7e-5,3.73133 -1.26655,6.89702 -3.79943,9.49707 -2.53303,2.60014 -5.73433,3.90019 -9.60389,3.90014 l -30.20019,0 0,30.40161 c -4e-5,3.86557 -1.30008,7.0984 -3.90015,9.69849 -2.60012,2.6001 -5.83295,3.90015 -9.69848,3.90015 -3.86558,0 -7.09841,-1.30005 -9.69849,-3.90015 -2.60011,-2.60009 -3.90015,-5.83292 -3.90015,-9.69849 l 0,-100.60424 c 0,-3.46261 1.30004,-6.59473 3.90015,-9.39637 2.60008,-2.80138 5.83291,-4.20214 9.69849,-4.20227 l 57.20214,0 c 3.73121,1.3e-4 6.89689,1.33375 9.49707,4.00086 2.60001,2.66736 3.90006,5.86661 3.90015,9.59778 -9e-5,3.86974 -1.30014,7.07103 -3.90015,9.60388 -2.60018,2.53306 -5.76586,3.79954 -9.49707,3.79944 z"
           style="marker:none;stroke-width:0;stroke-miterlimit:4;stroke-dasharray:none;stroke:#000000;stroke-opacity:1"
           id="path3059" />
        <path
           d="m 407.82645,758.07648 c -6.66508,0 -12.93135,-1.16679 -18.79882,-3.50037 -5.86755,-2.33357 -11.00162,-5.59997 -15.40223,-9.79919 -4.40065,-4.1992 -7.93356,-9.16543 -10.59875,-14.89869 -2.66521,-5.7332 -3.99781,-11.93436 -3.9978,-18.60351 l 0,-32.59888 c -10e-6,-6.66495 1.2329,-12.93122 3.69873,-18.79883 2.46581,-5.8674 5.86546,-11.00147 10.19897,-15.40222 4.33347,-4.40051 9.43397,-7.86731 15.30152,-10.40039 5.86747,-2.53283 12.40026,-3.79931 19.59838,-3.79944 6.4005,1.3e-4 12.53452,1.16692 18.4021,3.50037 5.86744,2.3337 11.00049,5.60111 15.39917,9.80225 4.39851,4.20136 7.93143,9.1686 10.59876,14.90173 2.66713,5.73333 4.00075,11.93246 4.00085,18.59741 l 0,32.59888 c -10e-5,6.66915 -1.23301,12.93643 -3.69873,18.80188 -2.46591,5.8655 -5.86557,10.99855 -10.19897,15.39917 -4.33358,4.40064 -9.43408,7.86744 -15.30152,10.40039 -5.86758,2.53296 -12.26812,3.79944 -19.20166,3.79944 z m 22.39991,-79.40064 c -8e-5,-3.06795 -0.56669,-5.96813 -1.69983,-8.70056 -1.1333,-2.73225 -2.73343,-5.09838 -4.80042,-7.09839 -2.06712,-1.99982 -4.46682,-3.59996 -7.19909,-4.80041 -2.7324,-1.20026 -5.69973,-1.80044 -8.90198,-1.80054 -3.19829,10e-5 -6.13103,0.56671 -8.79822,1.69983 -2.66728,1.13332 -5.00085,2.63376 -7.00073,4.50134 -1.99996,1.86777 -3.60009,4.13421 -4.80042,6.79932 -1.20039,2.66529 -1.80057,5.46476 -1.80053,8.39844 l 0,32.00073 c -0.13024,3.06808 0.37126,5.96826 1.50451,8.70056 1.13319,2.73238 2.73231,5.0985 4.79737,7.09839 2.06498,1.99995 4.46468,3.60008 7.19909,4.80041 2.73433,1.20039 5.83491,1.80057 9.30176,1.80054 2.9337,3e-5 5.73419,-0.56658 8.40149,-1.69983 2.66717,-1.13319 5.00075,-2.63262 7.00073,-4.49829 1.99985,-1.86561 3.59897,-4.13204 4.79737,-6.79932 1.19824,-2.66719 1.7974,-5.46768 1.79748,-8.40149 z"
           style="marker:none;stroke-width:0;stroke-miterlimit:4;stroke-dasharray:none;stroke:#000000;stroke-opacity:1"
           id="path3061" />
        <path
           d="m 516.2371,630.87921 c 6.40049,1.3e-4 12.53452,1.1659 18.4021,3.49732 5.86743,2.33166 11.0015,5.59806 15.40222,9.79919 4.40054,4.20136 7.93346,9.1686 10.59875,14.90173 2.6651,5.73333 3.9977,11.93246 3.99781,18.59742 l 0,67.40112 c -1.1e-4,3.46681 -1.23301,6.46668 -3.69873,8.99963 -2.46592,2.53296 -5.49936,3.86658 -9.10034,4.00086 -3.60117,0 -6.70175,-1.16679 -9.30176,-3.50037 -2.60018,-2.33357 -3.90023,-5.30089 -3.90015,-8.90198 l 0,-66.40014 c -8e-5,-3.06389 -0.56669,-5.96305 -1.69983,-8.69751 -1.13329,-2.73429 -2.73241,-5.10143 -4.79736,-7.10144 -2.06509,-1.99983 -4.46479,-3.59996 -7.1991,-4.80042 -2.73443,-1.20026 -5.70074,-1.80043 -8.89892,-1.80054 -2.93381,1.1e-4 -5.73431,0.56671 -8.40149,1.69983 -2.66728,1.13332 -5.00086,2.63377 -7.00074,4.50135 -1.99995,1.86777 -3.60009,4.13522 -4.80041,6.80236 -1.20039,2.66733 -1.80057,5.46782 -1.80054,8.40149 l 0,66.79688 c -3e-5,3.46681 -1.33365,6.50025 -4.00085,9.10034 -2.66726,2.6001 -5.73428,3.90015 -9.20105,3.90015 -3.46275,0 -6.52772,-1.20036 -9.19495,-3.60108 -2.66724,-2.40071 -4.00086,-5.33446 -4.00085,-8.80127 l 0,-66.40014 c 0.13427,-6.66496 1.43432,-12.93123 3.90014,-18.79883 2.46581,-5.86741 5.86547,-11.00046 10.19898,-15.39917 4.33347,-4.39848 9.43295,-7.86426 15.29846,-10.39734 5.86544,-2.53283 12.26497,-3.79931 19.19861,-3.79944 z"
           style="marker:none;stroke-width:0;stroke-miterlimit:4;stroke-dasharray:none;stroke:#000000;stroke-opacity:1"
           id="path3063" />
        <path
           d="m 648.41483,731.07452 c 3.7312,3e-5 6.89689,1.33365 9.49707,4.00086 2.60001,2.66726 3.90006,5.80141 3.90015,9.40246 -9e-5,3.86557 -1.30014,7.0984 -3.90015,9.69849 -2.60018,2.6001 -5.76587,3.90015 -9.49707,3.90015 l -57.20215,0 c -3.46681,0 -6.56637,-1.30005 -9.2987,-3.90015 -2.73235,-2.60009 -4.09852,-5.83292 -4.09851,-9.69849 l 0,-100.60424 c -10e-6,-3.46261 1.26647,-6.59473 3.79944,-9.39637 2.53294,-2.80138 5.7322,-4.20214 9.59777,-4.20227 l 57.20215,0 c 3.7312,1.3e-4 6.89689,1.33375 9.49707,4.00086 2.60001,2.66736 3.90006,5.86661 3.90015,9.59778 -9e-5,3.86974 -1.30014,7.07103 -3.90015,9.60388 -2.60018,2.53306 -5.76587,3.79954 -9.49707,3.79944 l -44.00024,0 0,22.79663 30.60303,0 c 3.59693,8e-5 6.72905,1.33369 9.39636,4.00085 2.66716,2.66731 4.00078,5.8686 4.00085,9.60388 -7e-5,3.73135 -1.33369,6.89703 -4.00085,9.49707 -2.66731,2.60015 -5.79943,3.9002 -9.39636,3.90015 l -30.60303,0 0,23.99902 z"
           style="marker:none;stroke-width:0;stroke-miterlimit:4;stroke-dasharray:none;stroke:#000000;stroke-opacity:1"
           id="path3065" />
      </g>
      <path
         style="fill:#ffffff;fill-opacity:1;stroke:none"
         d="m 395,668.07648 26.42857,0 0,42.85714 -26.42857,0 z"
         id="rect2989" />
      <path
         transform="translate(-0.71428572,-1.4285714)"
         style="fill:#ffffff;fill-opacity:1;stroke:none"
         d="m 412.85715,721.64789 c 0,2.76142 -2.23858,5 -5,5 -2.76143,0 -5,-2.23858 -5,-5 0,-2.76143 2.23857,-5 5,-5 2.76142,0 5,2.23857 5,5 z"
         id="path2991" />
      <path
         sodipodi:nodetypes="ccccc"
         inkscape:connector-curvature="0"
         id="path2997"
         d="m 412.88625,607.05209 c 7.4753,-0.85745 31.37127,5.94457 39.61375,14.23867 -9.65204,-5.19992 -33.09513,-8.57865 -44.46429,-8.21429 -8.05082,-0.24961 -32.9968,2.56091 -40.26785,8.21428 10.06252,-9.87656 31.16355,-14.23866 45.11839,-14.23866 z"
         style="fill:#ffffff;fill-opacity:1;stroke:#000000;stroke-opacity:1;stroke-width:0.07478811;stroke-miterlimit:4;stroke-dasharray:none" />
      <path
         sodipodi:nodetypes="ccccc"
         inkscape:connector-curvature="0"
         id="path2997-1"
         d="m 416.73228,581.01402 c 9.55483,-1.09598 40.09836,7.59827 50.6338,18.19969 -12.33712,-6.64647 -42.30179,-10.96512 -56.8337,-10.4994 -10.29046,-0.31905 -42.1761,3.27332 -51.46987,10.49939 12.86179,-12.6241 39.83286,-18.19968 57.66977,-18.19968 z"
         style="fill:#ffffff;fill-opacity:1;stroke:#000000;stroke-width:0.07478811000000001;stroke-miterlimit:4;stroke-dasharray:none;stroke-opacity:1" />
      <path
         sodipodi:nodetypes="ccccc"
         inkscape:connector-curvature="0"
         id="path2997-7"
         d="m 419.86348,553.00219 c 11.99672,-1.37608 50.3461,9.54013 63.57402,22.85089 -15.49005,-8.34508 -53.11263,-13.76742 -71.35839,-13.18268 -12.92034,-0.40059 -52.95483,4.10987 -64.62375,13.18267 16.14881,-15.85037 50.01274,-22.85088 72.40812,-22.85088 z"
         style="fill:#ffffff;fill-opacity:1;stroke:#000000;stroke-opacity:1;stroke-width:0.07478811;stroke-miterlimit:4;stroke-dasharray:none" />
    </g>
    <rect
       style="fill:#000000;fill-opacity:1;stroke:#0000ff;stroke-width:0.01;stroke-miterlimit:4;stroke-dasharray:none;stroke-opacity:1"
       id="rect3800-9"
       width="265.74802"
       height="425.19684"
       x="407.34583"
       y="215.16267"
       rx="20.299999"
       ry="20"
       inkscape:export-filename="C:\Users\User1\Documents\GitHub\TYFONE\prototype.png"
       inkscape:export-xdpi="139.75"
       inkscape:export-ydpi="139.75" />
    <path
       sodipodi:type="arc"
       style="fill:#ffffff;fill-opacity:1;stroke:#0000ff;stroke-width:0.01000000000000000;stroke-miterlimit:4;stroke-dasharray:none;stroke-opacity:1"
       id="path4370"
       sodipodi:cx="745.49255"
       sodipodi:cy="271.51425"
       sodipodi:rx="17.172594"
       sodipodi:ry="17.172594"
       d="m 762.66515,271.51425 a 17.172594,17.172594 0 1 1 -34.34519,0 17.172594,17.172594 0 1 1 34.34519,0 z"
       transform="translate(-204.05081,-16.162441)"
       inkscape:export-filename="C:\Users\User1\Documents\GitHub\TYFONE\prototype.png"
       inkscape:export-xdpi="139.75"
       inkscape:export-ydpi="139.75" />
    <g
       id="layer1-0-4"
       inkscape:label="Layer 1"
       transform="matrix(0.25795154,0,0,0.25795154,450.34699,177.80803)"
       style="fill:#ffffff;stroke:#ff0000;stroke-width:0.03876697000000000;stroke-miterlimit:4;stroke-opacity:1;stroke-dasharray:none;fill-opacity:1"
       inkscape:export-filename="C:\Users\User1\Documents\GitHub\TYFONE\prototype.png"
       inkscape:export-xdpi="139.75"
       inkscape:export-ydpi="139.75">
      <g
         style="font-size:200px;font-style:normal;font-variant:normal;font-weight:normal;font-stretch:normal;text-indent:0;text-align:start;text-decoration:none;line-height:100%;letter-spacing:0px;word-spacing:0px;text-transform:none;direction:ltr;block-progression:tb;writing-mode:tb-rl;text-anchor:start;baseline-shift:baseline;color:#000000;fill:#ffffff;fill-opacity:1;fill-rule:nonzero;stroke:#ff0000;marker:none;visibility:visible;display:inline;overflow:visible;enable-background:accumulate;font-family:'Arista 2.0';-inkscape-font-specification:'Arista 2.0,';stroke-opacity:1;stroke-width:0.03876697000000000;stroke-miterlimit:4;stroke-dasharray:none"
         id="text2985-8">
        <path
           d="m 145.34476,630.27496 c 3.86547,1.3e-4 7.0983,1.33375 9.69849,4.00086 2.6,2.66736 3.90005,5.86661 3.90015,9.59778 -1e-4,3.86974 -1.30015,7.07103 -3.90015,9.60388 -2.60019,2.53306 -5.83302,3.79954 -9.69849,3.79944 l -22.3999,0 0,87.20092 c -6e-5,3.86557 -1.26756,7.0984 -3.80249,9.69849 -2.53505,2.6001 -5.73532,3.90015 -9.60083,3.90015 -3.86561,0 -7.06486,-1.30005 -9.597776,-3.90015 -2.533,-2.60009 -3.799478,-5.83292 -3.799439,-9.69849 l 0,-87.20092 -22.601318,0 c -3.735364,10e-5 -6.902069,-1.26638 -9.500122,-3.79944 -2.598068,-2.53285 -3.897098,-5.73414 -3.897095,-9.60388 -3e-6,-3.73117 1.299027,-6.93042 3.897095,-9.59778 2.598053,-2.66711 5.764758,-4.00073 9.500122,-4.00086 z"
           style="marker:none;stroke:#ff0000;stroke-opacity:1;stroke-width:0.03876697000000000;stroke-miterlimit:4;stroke-dasharray:none;fill:#ffffff;fill-opacity:1"
           id="path3040" />
        <path
           d="m 165.43143,661.47614 0,-17.79786 c 0,-3.73523 1.30005,-6.90295 3.90015,-9.50317 2.60009,-2.59997 5.70067,-3.90002 9.30176,-3.90015 3.86554,1.3e-4 7.09836,1.30018 9.69849,3.90015 2.60006,2.60022 3.90011,5.76794 3.90014,9.50317 l 0,17.79786 c -3e-5,5.46884 1.83306,10.0363 5.49927,13.70239 3.66614,3.66626 8.23156,5.49934 13.69629,5.49927 5.46869,7e-5 10.06972,-1.83301 13.8031,-5.49927 3.73325,-3.66609 5.59991,-8.23355 5.59997,-13.70239 l 0,-17.79786 c -6e-5,-3.73523 1.29998,-6.90295 3.90015,-9.50317 2.60002,-2.59997 5.70061,-3.90002 9.30176,-3.90015 3.86547,1.3e-4 7.0983,1.30018 9.69849,3.90015 2.6,2.60022 3.90005,5.76794 3.90014,9.50317 l 0,17.79786 0,0.20141 c -9e-5,5.20029 -0.83322,10.16651 -2.49939,14.89868 -1.66635,4.73234 -3.96636,9.03226 -6.90002,12.89978 -2.93384,3.86766 -6.43421,7.2012 -10.5011,10.00061 -4.06705,2.79954 -8.50125,4.86659 -13.30261,6.20118 l 0,39.00146 c -7e-5,3.73129 -1.30011,6.89698 -3.90015,9.49707 -2.60015,2.6001 -5.6987,3.90015 -9.29565,3.90015 -3.86968,0 -7.10454,-1.30005 -9.70459,-3.90015 -2.60014,-2.60009 -3.90019,-5.76578 -3.90015,-9.49707 l 0,-39.20288 c -4.66312,-1.46479 -8.96202,-3.59797 -12.89673,-6.39954 -3.93475,-2.80145 -7.33542,-6.13498 -10.20203,-10.00061 -2.86662,-3.86548 -5.09949,-8.13184 -6.6986,-12.79907 -1.59913,-4.66707 -2.39869,-9.60074 -2.39869,-14.80102 z"
           style="marker:none;stroke:#ff0000;stroke-opacity:1;stroke-width:0.03876697000000000;stroke-miterlimit:4;stroke-dasharray:none;fill:#ffffff;fill-opacity:1"
           id="path3042" />
        <path
           d="m 295.24711,657.27692 0,29.79736 30.20019,0 c 3.86956,7e-5 7.07086,1.33369 9.60389,4.00085 2.53288,2.6673 3.79936,5.8686 3.79943,9.60389 -7e-5,3.73133 -1.26655,6.89702 -3.79943,9.49707 -2.53303,2.60014 -5.73433,3.90019 -9.60389,3.90014 l -30.20019,0 0,30.40161 c -4e-5,3.86557 -1.30008,7.0984 -3.90015,9.69849 -2.60012,2.6001 -5.83295,3.90015 -9.69848,3.90015 -3.86558,0 -7.09841,-1.30005 -9.69849,-3.90015 -2.60011,-2.60009 -3.90015,-5.83292 -3.90015,-9.69849 l 0,-100.60424 c 0,-3.46261 1.30004,-6.59473 3.90015,-9.39637 2.60008,-2.80138 5.83291,-4.20214 9.69849,-4.20227 l 57.20214,0 c 3.73121,1.3e-4 6.89689,1.33375 9.49707,4.00086 2.60001,2.66736 3.90006,5.86661 3.90015,9.59778 -9e-5,3.86974 -1.30014,7.07103 -3.90015,9.60388 -2.60018,2.53306 -5.76586,3.79954 -9.49707,3.79944 z"
           style="marker:none;stroke:#ff0000;stroke-opacity:1;stroke-width:0.03876697000000000;stroke-miterlimit:4;stroke-dasharray:none;fill:#ffffff;fill-opacity:1"
           id="path3044" />
        <path
           d="m 407.82645,758.07648 c -6.66508,0 -12.93135,-1.16679 -18.79882,-3.50037 -5.86755,-2.33357 -11.00162,-5.59997 -15.40223,-9.79919 -4.40065,-4.1992 -7.93356,-9.16543 -10.59875,-14.89869 -2.66521,-5.7332 -3.99781,-11.93436 -3.9978,-18.60351 l 0,-32.59888 c -10e-6,-6.66495 1.2329,-12.93122 3.69873,-18.79883 2.46581,-5.8674 5.86546,-11.00147 10.19897,-15.40222 4.33347,-4.40051 9.43397,-7.86731 15.30152,-10.40039 5.86747,-2.53283 12.40026,-3.79931 19.59838,-3.79944 6.4005,1.3e-4 12.53452,1.16692 18.4021,3.50037 5.86744,2.3337 11.00049,5.60111 15.39917,9.80225 4.39851,4.20136 7.93143,9.1686 10.59876,14.90173 2.66713,5.73333 4.00075,11.93246 4.00085,18.59741 l 0,32.59888 c -10e-5,6.66915 -1.23301,12.93643 -3.69873,18.80188 -2.46591,5.8655 -5.86557,10.99855 -10.19897,15.39917 -4.33358,4.40064 -9.43408,7.86744 -15.30152,10.40039 -5.86758,2.53296 -12.26812,3.79944 -19.20166,3.79944 z m 22.39991,-79.40064 c -8e-5,-3.06795 -0.56669,-5.96813 -1.69983,-8.70056 -1.1333,-2.73225 -2.73343,-5.09838 -4.80042,-7.09839 -2.06712,-1.99982 -4.46682,-3.59996 -7.19909,-4.80041 -2.7324,-1.20026 -5.69973,-1.80044 -8.90198,-1.80054 -3.19829,10e-5 -6.13103,0.56671 -8.79822,1.69983 -2.66728,1.13332 -5.00085,2.63376 -7.00073,4.50134 -1.99996,1.86777 -3.60009,4.13421 -4.80042,6.79932 -1.20039,2.66529 -1.80057,5.46476 -1.80053,8.39844 l 0,32.00073 c -0.13024,3.06808 0.37126,5.96826 1.50451,8.70056 1.13319,2.73238 2.73231,5.0985 4.79737,7.09839 2.06498,1.99995 4.46468,3.60008 7.19909,4.80041 2.73433,1.20039 5.83491,1.80057 9.30176,1.80054 2.9337,3e-5 5.73419,-0.56658 8.40149,-1.69983 2.66717,-1.13319 5.00075,-2.63262 7.00073,-4.49829 1.99985,-1.86561 3.59897,-4.13204 4.79737,-6.79932 1.19824,-2.66719 1.7974,-5.46768 1.79748,-8.40149 z"
           style="marker:none;stroke:#ff0000;stroke-opacity:1;stroke-width:0.03876697000000000;stroke-miterlimit:4;stroke-dasharray:none;fill:#ffffff;fill-opacity:1"
           id="path3046" />
        <path
           d="m 516.2371,630.87921 c 6.40049,1.3e-4 12.53452,1.1659 18.4021,3.49732 5.86743,2.33166 11.0015,5.59806 15.40222,9.79919 4.40054,4.20136 7.93346,9.1686 10.59875,14.90173 2.6651,5.73333 3.9977,11.93246 3.99781,18.59742 l 0,67.40112 c -1.1e-4,3.46681 -1.23301,6.46668 -3.69873,8.99963 -2.46592,2.53296 -5.49936,3.86658 -9.10034,4.00086 -3.60117,0 -6.70175,-1.16679 -9.30176,-3.50037 -2.60018,-2.33357 -3.90023,-5.30089 -3.90015,-8.90198 l 0,-66.40014 c -8e-5,-3.06389 -0.56669,-5.96305 -1.69983,-8.69751 -1.13329,-2.73429 -2.73241,-5.10143 -4.79736,-7.10144 -2.06509,-1.99983 -4.46479,-3.59996 -7.1991,-4.80042 -2.73443,-1.20026 -5.70074,-1.80043 -8.89892,-1.80054 -2.93381,1.1e-4 -5.73431,0.56671 -8.40149,1.69983 -2.66728,1.13332 -5.00086,2.63377 -7.00074,4.50135 -1.99995,1.86777 -3.60009,4.13522 -4.80041,6.80236 -1.20039,2.66733 -1.80057,5.46782 -1.80054,8.40149 l 0,66.79688 c -3e-5,3.46681 -1.33365,6.50025 -4.00085,9.10034 -2.66726,2.6001 -5.73428,3.90015 -9.20105,3.90015 -3.46275,0 -6.52772,-1.20036 -9.19495,-3.60108 -2.66724,-2.40071 -4.00086,-5.33446 -4.00085,-8.80127 l 0,-66.40014 c 0.13427,-6.66496 1.43432,-12.93123 3.90014,-18.79883 2.46581,-5.86741 5.86547,-11.00046 10.19898,-15.39917 4.33347,-4.39848 9.43295,-7.86426 15.29846,-10.39734 5.86544,-2.53283 12.26497,-3.79931 19.19861,-3.79944 z"
           style="marker:none;stroke:#ff0000;stroke-opacity:1;stroke-width:0.03876697000000000;stroke-miterlimit:4;stroke-dasharray:none;fill:#ffffff;fill-opacity:1"
           id="path3048" />
        <path
           d="m 648.41483,731.07452 c 3.7312,3e-5 6.89689,1.33365 9.49707,4.00086 2.60001,2.66726 3.90006,5.80141 3.90015,9.40246 -9e-5,3.86557 -1.30014,7.0984 -3.90015,9.69849 -2.60018,2.6001 -5.76587,3.90015 -9.49707,3.90015 l -57.20215,0 c -3.46681,0 -6.56637,-1.30005 -9.2987,-3.90015 -2.73235,-2.60009 -4.09852,-5.83292 -4.09851,-9.69849 l 0,-100.60424 c -10e-6,-3.46261 1.26647,-6.59473 3.79944,-9.39637 2.53294,-2.80138 5.7322,-4.20214 9.59777,-4.20227 l 57.20215,0 c 3.7312,1.3e-4 6.89689,1.33375 9.49707,4.00086 2.60001,2.66736 3.90006,5.86661 3.90015,9.59778 -9e-5,3.86974 -1.30014,7.07103 -3.90015,9.60388 -2.60018,2.53306 -5.76587,3.79954 -9.49707,3.79944 l -44.00024,0 0,22.79663 30.60303,0 c 3.59693,8e-5 6.72905,1.33369 9.39636,4.00085 2.66716,2.66731 4.00078,5.8686 4.00085,9.60388 -7e-5,3.73135 -1.33369,6.89703 -4.00085,9.49707 -2.66731,2.60015 -5.79943,3.9002 -9.39636,3.90015 l -30.60303,0 0,23.99902 z"
           style="marker:none;stroke:#ff0000;stroke-opacity:1;stroke-width:0.03876697000000000;stroke-miterlimit:4;stroke-dasharray:none;fill:#ffffff;fill-opacity:1"
           id="path3050" />
      </g>
      <path
         style="fill:#ffffff;fill-opacity:1;stroke:#ff0000;stroke-opacity:1;stroke-width:0.03876697000000000;stroke-miterlimit:4;stroke-dasharray:none"
         d="m 395,668.07648 26.42857,0 0,42.85714 -26.42857,0 z"
         id="rect2989-2" />
      <path
         transform="translate(-0.71428572,-1.4285714)"
         style="fill:#ffffff;fill-opacity:1;stroke:#ff0000;stroke-opacity:1;stroke-width:0.03876697000000000;stroke-miterlimit:4;stroke-dasharray:none"
         d="m 412.85715,721.64789 c 0,2.76142 -2.23858,5 -5,5 -2.76143,0 -5,-2.23858 -5,-5 0,-2.76143 2.23857,-5 5,-5 2.76142,0 5,2.23857 5,5 z"
         id="path2991-4" />
      <path
         sodipodi:nodetypes="ccccc"
         inkscape:connector-curvature="0"
         id="path2997-5"
         d="m 412.88625,607.05209 c 7.4753,-0.85745 31.37127,5.94457 39.61375,14.23867 -9.65204,-5.19992 -33.09513,-8.57865 -44.46429,-8.21429 -8.05082,-0.24961 -32.9968,2.56091 -40.26785,8.21428 10.06252,-9.87656 31.16355,-14.23866 45.11839,-14.23866 z"
         style="fill:#ffffff;fill-opacity:1;stroke:#ff0000;stroke-width:0.03876697000000000;stroke-miterlimit:4;stroke-opacity:1;stroke-dasharray:none" />
      <path
         sodipodi:nodetypes="ccccc"
         inkscape:connector-curvature="0"
         id="path2997-1-5"
         d="m 416.73228,581.01402 c 9.55483,-1.09598 40.09836,7.59827 50.6338,18.19969 -12.33712,-6.64647 -42.30179,-10.96512 -56.8337,-10.4994 -10.29046,-0.31905 -42.1761,3.27332 -51.46987,10.49939 12.86179,-12.6241 39.83286,-18.19968 57.66977,-18.19968 z"
         style="fill:#ffffff;fill-opacity:1;stroke:#ff0000;stroke-width:0.03876697000000000;stroke-miterlimit:4;stroke-opacity:1;stroke-dasharray:none" />
      <path
         sodipodi:nodetypes="ccccc"
         inkscape:connector-curvature="0"
         id="path2997-7-1"
         d="m 419.86348,553.00219 c 11.99672,-1.37608 50.3461,9.54013 63.57402,22.85089 -15.49005,-8.34508 -53.11263,-13.76742 -71.35839,-13.18268 -12.92034,-0.40059 -52.95483,4.10987 -64.62375,13.18267 16.14881,-15.85037 50.01274,-22.85088 72.40812,-22.85088 z"
         style="fill:#ffffff;fill-opacity:1;stroke:#ff0000;stroke-width:0.03876697000000000;stroke-miterlimit:4;stroke-opacity:1;stroke-dasharray:none" />
    </g>
  </g>
</svg>
